<?xml version="1.0" standalone="no"?>
<!DOCTYPE svg PUBLIC "-//W3C//DTD SVG 1.1//EN" "http://www.w3.org/Graphics/SVG/1.1/DTD/svg11.dtd" >
<!--
2013-9-30: Created.
-->
<svg>
<metadata>
Created by iconfont
</metadata>
<defs>

<font id="iconfont" horiz-adv-x="1024" >
  <font-face
    font-family="iconfont"
    font-weight="500"
    font-stretch="normal"
    units-per-em="1024"
    ascent="896"
    descent="-128"
  />
    <missing-glyph />
    
    <glyph glyph-name="fire" unicode="&#59411;" d="M914.285714-73.142857v-36.571429q0-7.428571-5.428571-12.857143t-12.857143-5.428571H128q-7.428571 0-12.857143 5.428571T109.714286-109.714286v36.571429q0 7.428571 5.428571 12.857143t12.857143 5.428571h768q7.428571 0 12.857143-5.428571t5.428571-12.857143zM768 530.285714q0-44.571429-14-82.285714t-36.571429-64.285714-50-50.285715-54.857142-44.285714-50-41.142857-36.571429-46.571429T512 146.285714q0-54.857143 38.285714-128l-2.285714 0.571429 0.571429-0.571429q-51.428571 23.428571-91.428572 47.428572t-79.142857 57.142857T313.142857 192.857143 271.714286 278.857143 256 384q0 44.571429 14 82.285714t36.571429 64.285715 50 50.285714 54.857142 44.285714 50 41.142857 36.571429 46.571429T512 768q0 53.714286-37.714286 128l1.714286-0.571429-0.571429 0.571429q51.428571-23.428571 91.428572-47.428571t79.142857-57.142858T710.857143 721.428571t41.428571-86 15.714286-105.142857z"  horiz-adv-x="1024" />

    
    <glyph glyph-name="shujuku" unicode="&#59031;" d="M261.738188 876.289643C329.145905 889.344555 402.44113 896 481.623865 896c79.268061 0 152.563286-6.655445 220.056328-19.710357 67.407716-13.054912 120.736605-30.973419 159.901342-53.499542 39.250062-22.526123 58.875094-46.844096 58.875094-73.209899v-73.2099c0-26.365803-19.539705-50.683776-58.875094-73.209899-39.250062-22.526123-92.493626-40.359303-159.986668-53.499541-67.407716-12.88426-140.788268-19.454379-219.971002-19.454379-79.182735 0-152.563286 6.655445-219.971003 19.710357-67.493042 13.054912-120.907258 30.973419-160.071994 53.499542-39.250062 22.526123-58.875094 46.844096-58.875093 73.209899v73.209899c0 26.365803 19.625031 50.683776 58.875093 73.209899 39.335389 22.270144 92.578952 40.103325 160.071994 53.243564z m-33.106574-394.463129a1237.230231 1237.230231 0 0 1 253.077577-24.573952 1237.230231 1237.230231 0 0 1 253.077577 24.573952c78.414799 16.382635 140.361637 40.615282 185.669861 72.52729v-97.101242c0-26.365803-19.625031-50.683776-58.875094-73.209899-39.250062-22.526123-92.578952-40.359303-159.986668-53.499542-67.32239-13.054912-140.702941-19.625031-219.885676-19.625031-79.182735 0-152.563286 6.740772-219.971003 19.795684-67.493042 12.969586-120.907258 30.888093-160.071994 53.499542-39.250062 22.526123-58.875094 46.844096-58.875093 73.124573V554.524456c45.478877-32.253312 107.425715-56.48596 185.925839-72.697942z m0-219.459045a1237.230231 1237.230231 0 0 1 253.077577-24.573952 1237.230231 1237.230231 0 0 1 253.077577 24.573952c78.414799 16.382635 140.361637 40.529956 185.669861 72.52729v-97.186568c0-26.365803-19.625031-50.683776-58.875094-73.124573-39.250062-22.526123-92.578952-40.359303-159.986668-53.584868a1146.784435 1146.784435 0 0 0-219.885676-19.625031c-79.182735 0-152.563286 6.655445-219.971003 19.625031-67.493042 13.054912-120.736605 31.058745-160.071994 53.499542-39.250062 22.526123-58.875094 46.929423-58.875093 73.295225V334.809433c45.478877-31.997334 107.425715-56.229981 185.925839-72.52729z m0-219.459045a1237.230231 1237.230231 0 0 1 253.077577-24.573952 1237.230231 1237.230231 0 0 1 253.077577 24.573952c78.414799 16.382635 140.361637 40.615282 185.669861 72.612616v-97.186568c0-26.365803-19.625031-50.683776-58.875094-73.124573-39.250062-22.526123-92.578952-40.359303-159.986668-53.499542-67.407716-13.225565-140.702941-19.625031-219.885676-19.625031-79.182735 0-152.563286 6.655445-219.971003 19.710358-67.493042 13.054912-120.907258 30.973419-160.071994 53.499541-39.250062 22.526123-58.875094 46.844096-58.875093 73.2099V115.691692c45.478877-32.167986 107.425715-56.315307 185.925839-72.783268z"  horiz-adv-x="1024" />

    
    <glyph glyph-name="wu" unicode="&#58901;" d="M512 896C230.4 896 0 665.6 0 384s230.4-512 512-512 512 230.4 512 512-230.4 512-512 512z m0-960c-249.6 0-448 198.4-448 448s198.4 448 448 448 448-198.4 448-448-198.4-448-448-448zM512 384m-128 0a128 128 0 1 1 256 0 128 128 0 1 1-256 0Z"  horiz-adv-x="1024" />

    
    <glyph glyph-name="yanjing-kai" unicode="&#59076;" d="M502.054 712.32c69.605-0.133 132.349-14.482 192.58-40.424 68.932-29.689 129.792-71.797 185.902-121.183 47.445-41.758 90.322-87.848 129.929-137.026 13.577-16.859 12.714-30.815 2.157-46.452-29.091-43.085-62.349-82.697-98.383-120.04-48.923-50.701-103.14-94.712-164.84-129.088-52.59-29.3-108.311-49.788-168.13-58.164-74.098-10.375-146.114-1.624-216.238 24.098-74.147 27.196-139.002 69.687-198.604 120.729-57.139 48.933-107.566 104.215-153.463 163.708-12.511 16.217-12.712 25.623-0.805 42.445 53.434 75.496 117.087 140.989 191.974 195.392 49.495 35.958 102.841 64.598 161.175 83.529 45.676 14.823 92.546 22.319 136.749 22.473z m227.775-128.673c62.471-114.537 26.775-243.337-55.2-312.739-85.635-72.502-206.65-80.404-298.895-18.919-55.437 36.951-91.14 88.173-105.728 153.369-14.559 65.065-3.497 126.304 29.599 184.028-89.074-49.493-160.202-118.702-222.228-198.313 28.273-35.352 57.686-68.854 89.381-100.289 28.474-28.243 58.594-54.593 91.232-78.017 59.076-42.4 123.006-73.687 195.211-86.407 46.052-8.116 92.043-8.097 137.882 1.203 67.85 13.766 128.424 43.944 183.977 84.295 65.973 47.922 121.714 106.232 169.908 171.884 2.369 3.228 2.381 5.26-0.301 8.232-18.146 20.096-35.688 40.754-54.262 60.443-41.478 43.972-86.637 83.725-137.453 116.748-7.624 4.955-15.412 9.661-23.122 14.479zM338.953 449.713c1.141-3.841 1.933-9.901 4.648-14.923 4.954-9.165 17.306-12.925 29.093-10.007 11.171 2.767 17.454 11.352 19.1 23.42 1.913 14.034 3.599 28.346 7.818 41.773 16.275 51.814 52.514 80.178 105.998 86.948 15.556 1.969 26.188 13.654 25.942 29.385-0.226 14.399-9.358 23.32-23.712 22.702-5.562-0.239-11.118-1.18-16.623-2.113-32.155-5.451-61.785-16.983-87.005-38.054-42.629-35.615-59.669-83.495-65.258-139.132z"  horiz-adv-x="1024" />

    
    <glyph glyph-name="qun" unicode="&#58902;" d="M470.667715 316.710081c-48.536168 43.467518-105.468889 111.459112-121.647611 238.533763a585.403531 585.403531 0 0 0 1.177565 119.292481c-1.075168 0 1.382359 0.153595 0.255993 0.153596-151.035544 7.167789-247.544697-106.646454-247.544698-238.277771 0-98.147505 56.215942-182.317822 136.443975-218.719948C102.396979 179.702923 5.375841 51.604302 0-97.946487h202.950813v0.102397c22.527335 207.097891 139.771877 368.629125 267.409711 414.554171h0.307191z m992.329127-414.656568c-5.42704 148.731612-103.113758 276.420646-240.786497 314.153933 80.68882 36.350928 137.314349 120.162855 137.314349 217.95197 0 131.17053-97.123535 244.319193-249.183049 237.151404-1.075168 0 1.279962-0.153595 0.153595-0.153595 4.556666-39.422837 4.966253-79.255262 1.279963-118.934092-16.28112-126.306674-73.725825-194.042276-122.415589-237.356198 128.508209-45.566656 246.469529-206.534707 269.252857-412.659826v-0.153596h204.384371z m-626.413521 406.004023c128.508209 57.495904 200.032499 202.080439 171.105352 345.077821C978.710328 796.132738 857.267511 897.915335 717.598031 895.969793c-139.720678-1.894344-258.552373-106.851248-283.998022-250.51421-25.394451-143.867756 49.662535-286.199557 179.553103-340.367559-172.129322-53.041635-292.650567-215.136053-299.715958-402.932114h834.330587c-7.065392 192.250329-133.474463 356.853473-311.18442 405.850428v0.051198z"  horiz-adv-x="1484" />

    
    <glyph glyph-name="jiangpin" unicode="&#59132;" d="M550.912 437.6576V663.3472c-10.5472 0-23.6544 2.6624-31.5392 2.6624h-2.6624c-13.1072-2.6624-26.2144-2.6624-44.6464-5.2224v-223.1296H10.24V616.1408c0 28.8768 23.6544 49.8688 49.8688 49.8688h210.0224c-55.0912 13.1072-97.0752 36.7616-99.7376 81.408-2.6624 52.5312 57.7536 139.0592 144.384 118.0672C403.968 844.4928 466.944 776.192 514.1504 715.8784c47.2064 60.416 118.0672 139.1616 210.0224 152.2688 81.408 10.5472 144.384-68.1984 136.4992-120.7296-7.8848-44.6464-49.8688-70.8608-104.96-81.408h207.36c28.8768 0 49.8688-23.6544 49.8688-49.8688v-178.4832H550.912zM325.2224 818.176c-41.984 15.7696-68.1984-2.6624-86.6304-31.5392-10.5472-15.7696-20.992-39.3216-5.2224-55.0912 41.984-41.984 154.8288-39.3216 233.5744-31.5392C430.1824 744.7552 385.536 794.624 325.2224 818.176zM797.696 731.648c28.8768 39.424-28.8768 118.0672-91.8528 89.1904-60.416-28.8768-102.4-73.5232-141.7216-120.7296 31.5392-2.6624 65.6384-2.6624 97.0752-2.6624 41.984 2.6624 115.5072 5.3248 136.4992 34.2016zM474.8288-100.4544H99.5328C73.216-100.4544 52.224-79.4624 52.224-53.248V400.896h422.6048v-501.3504zM970.9568-53.248c0-26.2144-20.992-47.2064-47.2064-47.2064H548.352v498.688h422.6048V-53.248z m0 0"  horiz-adv-x="1024" />

    
    <glyph glyph-name="magnet" unicode="&#59476;" d="M328.14 599.8H24a24 24 0 0 0-24 24v160a72 72 0 0 0 72 72h208a72 72 0 0 0 72-72v-160a23.78 23.78 0 0 0-23.86-24z m695.86 24V784a72 72 0 0 1-72 72H744a72 72 0 0 1-72-72v-160a24 24 0 0 1 24-24h304a23.78 23.78 0 0 1 24 23.8z m-328-88a24 24 0 0 1-24-24v-104c0-256.2-320-255.8-320 0v104a24 24 0 0 1-24 24H24.2a24 24 0 0 1-24-24.2c0.2-42.8 1.2-80.6 0-106.6 0-301.2 272.34-493.2 513.5-493.2s510 192 510 493.4c-1.2 25.6-0.4 66 0 106.4a24 24 0 0 1-24 24.2z"  horiz-adv-x="1024" />

    
    <glyph glyph-name="jifen" unicode="&#58900;" d="M433.68843 503.051296c101.861174 0 207.804288 22.402015 271.42708 65.115205l0-77.763622 58.948509 0L764.064018 660.668163c0 102.359862-170.169196 157.621732-330.275851 157.621732C273.676647 818.289895 103.412579 763.028025 103.412579 660.668163l0-464.692803c0-102.359862 170.16433-157.621732 330.275851-157.621732l0 58.843906c-168.174446 0-271.431945 57.555833-271.431945 98.777826L162.256485 335.671102c63.627657-42.613453 169.471033-65.12007 271.431945-65.12007l0 58.948509c-168.174446 0-271.431945 57.550967-271.431945 98.771745L162.256485 568.066764C225.884142 525.453311 331.827255 503.051296 433.68843 503.051296L433.68843 503.051296zM433.68843 759.445989c168.174446 0 271.42708-57.557049 271.42708-98.777826 0-41.221993-103.25385-98.772961-271.42708-98.772961-168.174446 0-271.431945 57.550967-271.431945 98.772961C162.256485 701.88894 265.613722 759.445989 433.68843 759.445989L433.68843 759.445989zM697.747098 470.789866c-146.266253 0-222.736937-56.258029-222.736937-111.819112l0-298.614061c0-55.556218 76.570421-111.815463 222.736937-111.815463 145.177655 0 221.544952 55.461345 222.741802 110.622262l0.099737 0L920.588637 358.970754C920.4889 414.531837 844.018216 470.789866 697.747098 470.789866L697.747098 470.789866zM697.747098 411.942311c108.137339 0 163.893031-37.140054 163.893031-52.971557s-55.755693-52.971557-163.893031-52.971557c-108.132473 0-163.893031 37.140054-163.893031 52.971557S589.613408 411.942311 697.747098 411.942311L697.747098 411.942311zM697.747098 7.385136c-108.132473 0-163.893031 37.140054-163.893031 52.971557l0 71.296497c37.339529-20.316041 92.207314-33.857231 163.893031-33.857231 71.690582 0 126.45863 13.541189 163.893031 33.857231l0-71.296497C861.640129 44.526406 805.884436 7.385136 697.747098 7.385136L697.747098 7.385136zM697.747098 156.744468c-108.132473 0-163.893031 37.140054-163.893031 52.971557l0 71.291632c37.339529-20.311176 92.207314-33.852366 163.893031-33.852366 71.690582 0 126.45863 13.541189 163.893031 33.852366l0-71.291632C861.640129 193.884522 805.884436 156.744468 697.747098 156.744468L697.747098 156.744468zM697.747098 156.744468"  horiz-adv-x="1024" />

    
    <glyph glyph-name="caidan" unicode="&#58899;" d="M1004.807 681.49L808.362 877.937c-27.096 27.096-71.127 27.096-98.223 0L515.95 681.491c-27.095-27.096-27.095-71.127 0-98.223L711.268 387.95c27.096-27.095 71.127-27.095 98.223 0l195.316 196.446c25.967 27.096 25.967 71.127 0 97.094zM759.815 437.628L564.498 632.944 759.815 828.26 955.13 632.944 759.815 437.627zM352.247 832.777H64.353C25.967 832.776 0 810.196 0 771.81v-290.152c0-38.386 25.967-64.353 64.353-64.353h287.894c38.386 0 64.353 25.967 64.353 64.353V769.552c0 38.386-25.967 63.224-64.353 63.224z m0-544.177H64.353C25.967 288.6 0 255.859 0 217.473v-276.604C0-97.517 30.483-128 68.869-128h276.604c38.386 0 71.127 25.967 71.127 64.353V224.247c0 38.386-32.741 63.224-71.127 63.224l6.774 1.129z m480.953 0H608.53c-38.387 0-64.354-25.967-64.354-64.353v-287.894c0-38.386 38.386-64.353 76.772-64.353h276.604c38.386 0 63.224 25.967 63.224 64.353V224.247c0 38.386-25.967 64.353-64.353 64.353H833.2z"  horiz-adv-x="1025" />

    
    <glyph glyph-name="xinwen-copy" unicode="&#58883;" d="M498.819 60.16c-126.314-0.011-252.637-0.266-378.96 0.1-62.99 0.187-80.435 16.435-80.617 77.757-0.58 192.89 0.543 385.788-0.881 578.669-0.279 39.708 12.459 53.292 53.127 53.026 240.678-1.591 481.366-1.357 722.055-0.175 36.172 0.18 52.457-8.368 51.836-48.321-1.122-71.423 1.091-73.59 70.322-73.691 38.075-0.054 45.657-17.365 45.457-50.132-0.893-146.793 0.13-293.601-0.652-440.4-0.361-66.423-30.604-96.213-97.621-96.609-128.016-0.759-256.043-0.221-384.067-0.224zM87.793 116.664c11.377-1.582 19.499-3.691 27.621-3.696 220.229-0.231 440.458 0.502 660.677-0.971 40.459-0.272 43.563 21.735 43.523 51.809-0.23 165.594-1.293 331.204 0.72 496.775 0.551 45.71-16.283 57.233-60.068 56.793-206.538-2.078-413.119-0.861-619.697-1.057-16.565-0.019-33.129-1.872-52.777-3.053-0.001-199.25-0.001-394.903-0.001-596.602zM299.299 182.441c-35.781 0.030-72.026-3.27-107.105 1.693-13.59 1.923-34.451 22.066-35.062 34.715-3.405 71.397-0.972 143.046-1.982 214.591-0.421 29.157 12.438 38.796 40.198 38.396 69.841-1.006 139.701-1.062 209.543 0.020 28.521 0.439 39.818-10.841 39.437-39.242-0.962-69.837-1.281-139.718 0.121-209.545 0.64-31.766-12.999-42.271-42.942-40.995-34.019 1.446-68.14 0.336-102.208 0.367zM448.637 542.137c-83.502 0.004-167.042-1.117-250.482 1.097-14 0.37-27.62 15.152-41.42 23.274 13.159 7.593 26.259 21.676 39.477 21.792 168.695 1.498 337.421 1.501 506.114-0.026 12.989-0.114 25.839-14.596 38.747-22.402-13.971-7.911-27.77-22.302-41.952-22.672-83.442-2.164-166.982-1.063-250.483-1.063zM628.957 471.445c27.239-0.004 54.791 2.379 81.558-1.137 11.247-1.472 20.851-15.433 31.185-23.713-9.472-9.134-18.627-25.718-28.501-26.17-56.062-2.547-112.361-2.559-168.423-0.005-9.975 0.457-19.209 17.020-28.791 26.143 10.425 8.293 20.099 22.257 31.405 23.749 26.77 3.531 54.33 1.133 81.568 1.133zM622.288 296.337c-27.241 0-54.751-2.179-81.559 1.203-9.151 1.156-23.023 16.361-22.912 25.005 0.1 8.65 14.713 24.174 23.433 24.515 57.786 2.233 115.748 2.238 173.541 0.155 9.233-0.337 17.956-14.802 26.909-22.733-9.164-9.434-17.505-25.792-27.649-27.009-30.213-3.623-61.13-1.302-91.761-1.302 0 0.055 0 0.109 0 0.166zM595.107 182.57c-16.903 0.017-34.388-2.633-50.471 0.966-10.337 2.309-18.588 13.817-27.78 21.202 9.755 6.866 19.149 18.947 29.323 19.649 35.311 2.433 71.022 2.469 106.315-0.115 9.663-0.709 18.426-13.79 27.588-21.194-9.735-6.841-18.748-17.693-29.373-19.62-17.995-3.265-37.012-0.895-55.601-0.887z"  horiz-adv-x="1024" />

    
    <glyph glyph-name="xiazai" unicode="&#59048;" d="M957.399651 273.61903c-1.272993 23.387663-20.227694 42.094724-43.933605 42.094724s-42.665729-18.706037-43.938722-42.094724l-0.468674 0 0-194.45069c0-23.857361-16.1007-43.280736-35.904745-43.280736L190.791859 35.887604c-19.794835 0-35.904745 19.422352-35.904745 43.280736L154.887115 273.61903l-0.468674 0c-1.269923 23.387663-20.23281 42.094724-43.937698 42.094724-23.701818 0-42.665729-18.706037-43.935652-42.094724l-0.468674 0 0-194.45069c0-72.854285 55.93801-132.090411 124.71442-132.090411L833.148789-52.922071c68.781526 0 124.719536 59.241242 124.719536 132.090411L957.868325 273.61903 957.399651 273.61903 957.399651 273.61903 957.399651 273.61903zM497.856373 94.566028c3.518127-4.107551 8.692986-6.497994 14.112416-6.497994 5.428639 0 10.594289 2.390443 14.115486 6.497994L776.283664 387.289929c4.721535 5.516644 5.789866 13.282514 2.76088 19.848047-3.034103 6.608511-9.614985 10.813277-16.872273 10.813277L620.356358 417.951253 620.356358 794.251641c0 20.534685-16.637935 37.154201-37.153178 37.154201l-142.464689 0c-20.522406 0-37.160341-16.619516-37.160341-37.154201l0-376.300388L261.773494 417.951253c-7.259334 0-13.843286-4.204765-16.872273-10.813277-3.035126-6.565533-1.959631-14.33038 2.755764-19.848047L497.856373 94.566028 497.856373 94.566028 497.856373 94.566028zM497.856373 94.566028"  horiz-adv-x="1024" />

    
    <glyph glyph-name="shangchuantupian" unicode="&#59474;" d="M918 175.6H812.4V280.7c0 23.4-17.6 40.9-41.1 40.9s-41.1-17.5-41.1-40.9v-111H612.9c-23.5 0-41.1-17.5-41.1-40.9s17.6-40.9 41.1-40.9h111.5v-111c0-23.4 17.6-40.9 41.1-40.9s41.1 17.5 41.1 40.9v111H918c23.5 0 41.1 17.5 41.1 40.9 5.9 23.4-17.6 46.8-41.1 46.8zM506.4 69.4H139c-13.6 0-23.8 10.2-23.8 23.8V757.3c0 13.6 10.2 23.7 23.8 23.7h651c13.6 0 23.8-10.2 23.8-23.7v-359c0-13.6 10.2-23.7 23.9-23.7 13.6 0 23.8 10.2 23.8 23.7V781c0 27.1-23.8 50.9-51.1 50.9H115.1C87.9 831.9 64 808.2 64 781v-711.7c0-27.1 23.9-50.9 51.1-50.9h391.3c13.6 0 23.8 10.2 23.8 23.8 0 17-10.2 27.2-23.8 27.2z m-5 117.9c17.6 35.1 58.7 58.4 99.8 58.4h46.9v52.6c0 46.7 29.3 87.6 70.4 105.2l-58.7 175.3-205.4-263-58.7 93.5-217.1-222h322.8zM395.7 561.2c0 35-29.3 64.3-64.6 64.3s-64.6-29.2-64.6-64.3c0-35.1 29.3-64.3 64.6-64.3s64.6 29.2 64.6 64.3z"  horiz-adv-x="1024" />

    
    <glyph glyph-name="chevron-copy" unicode="&#59064;" d="M728.422 402.482l-394.783 394.813c-11.489 11.459-30.058 11.459-41.547 0-11.489-11.489-11.489-30.087 0-41.576l375.51-375.539-369.309-369.339c-11.167-11.137-11.166-29.207 0-40.343 11.136-11.195 29.207-11.196 40.372 0l383.56 383.53c1.498 1.498 2.233 3.321 3.321 5.054 0.909 0.676 2.028 1.028 2.88 1.88 11.459 11.459 11.459 30.059 0 41.518z"  horiz-adv-x="1024" />

    
    <glyph glyph-name="arrow-left" unicode="&#59016;" d="M730.027 896c18.714 0 37.43-7.145 51.715-21.43 28.571-28.573 28.571-74.858 0-103.427l-387.215-387.143 387.215-387.143c28.571-28.537 28.571-74.858 0-103.429s-74.858-28.571-103.429 0l-438.999 438.858c-13.715 13.714-21.428 32.286-21.428 51.714s7.713 38 21.428 51.714l438.998 438.858c14.286 14.284 33.001 21.428 51.715 21.428z"  horiz-adv-x="1024" />

    
    <glyph glyph-name="kechengjihua" unicode="&#59413;" d="M764.64 663.552V703.904c0 40.352-24.992 65.312-69.152 65.312-42.272 0-69.152-24.992-69.152-65.312v-42.272h-46.112V703.904c0 40.352-24.992 65.312-69.152 65.312-42.272 0-69.152-24.992-69.152-65.312v-42.272h-46.112V703.904c0 40.352-24.992 65.312-69.152 65.312-42.272 0-67.232-24.992-67.232-65.312v-42.272H180.576v-662.848h662.848V661.632l-78.784 1.92z m-101.824 40.352c0 19.2 9.6 28.832 32.672 28.832 23.04 0 32.672-7.68 32.672-28.832v-111.424c0-19.2-9.6-28.832-32.672-28.832-23.072 0-32.672 7.68-32.672 28.832V703.904z m-182.528 0c0 19.2 9.6 28.832 32.672 28.832 23.072 0 32.672-7.68 32.672-28.832v-111.424c0-19.2-9.6-28.832-32.672-28.832-23.072 0-32.672 7.68-32.672 28.832V703.904z m-184.448 0c0 19.2 9.6 28.832 32.672 28.832 23.072 0 32.672-7.68 32.672-28.832v-111.424c0-19.2-9.6-28.832-32.672-28.832-23.072 0-32.672 7.68-32.672 28.832V703.904z m491.872-647.488H236.288v459.2h551.424v-459.2zM414.976 152.48c5.76-5.76 19.2-11.52 28.832-11.52h19.2c9.6 0 21.12 5.76 28.832 11.52l222.88 222.88c5.76 5.76 5.76 17.28 0 23.072l-40.352 40.352c-5.76 5.76-17.28 5.76-23.072 0l-182.528-184.448c-5.76-5.76-17.28-5.76-23.04 0l-67.232 67.232c-5.76 5.76-17.28 5.76-23.04 0l-40.352-40.352c-5.76-5.76-5.76-17.28 0-23.04l99.872-105.696z"  horiz-adv-x="1024" />

    
    <glyph glyph-name="iconfontjiantou-copy" unicode="&#58882;" d="M168.08533333333332 274.75200000000007l320.00000000000017-319.9999999999999c24.99200000000001-24.991999999999987 65.504-24.991999999999962 90.496 4.263256414560601e-14l319.9999999999999 320.00000000000017c24.991999999999987 24.99200000000001 24.991999999999962 65.504-4.263256414560601e-14 90.496s-65.504 24.991999999999962-90.496-4.263256414560601e-14l-210.7519999999999-210.7520000000001-2.2737367544323206e-13 613.5040000000001c-1.4210854715202004e-14 35.36-28.640000000000043 64-64.00000000000003 63.99999999999996s-64-28.640000000000043-63.99999999999996-64.00000000000003l2.2737367544323206e-13-613.5040000000001-210.7520000000001 210.7519999999999c-12.480000000000004 12.479999999999992-28.864 18.751999999999974-45.24800000000002 18.751999999999974s-32.768-6.240000000000016-45.247999999999976-18.752000000000017c-24.991999999999987-24.99200000000001-24.991999999999962-65.504 4.263256414560601e-14-90.496z"  horiz-adv-x="1024" />

    
    <glyph glyph-name="jiaojuan" unicode="&#59150;" d="M220.8 284.8c-16 0-32-12.8-32-28.8s12.8-28.8 32-28.8h208c16 0 32 12.8 32 28.8s-12.8 28.8-32 28.8H220.8zM768 531.2c0 16-12.8 28.8-32 28.8H230.4c-16 0-32-12.8-32-28.8s12.8-28.8 32-28.8h512c16 0 25.6 12.8 25.6 28.8zM908.8 118.4c-16 0-32-12.8-32-28.8v-80c0-16-12.8-28.8-32-28.8H121.6c-16 0-32 12.8-32 28.8V755.2c0 16 12.8 28.8 32 28.8h726.4c16 0 32-12.8 32-28.8v-268.8c0-16 12.8-28.8 32-28.8 16 0 32 12.8 32 28.8V755.2c0 48-38.4 86.4-89.6 86.4H121.6C70.4 841.6 32 803.2 32 755.2v-745.6c0-48 38.4-86.4 89.6-86.4h726.4c48 0 89.6 38.4 89.6 86.4v80c0 16-12.8 28.8-28.8 28.8zM982.4 377.6c-12.8 9.6-32 9.6-41.6 0l-230.4-224-105.6 102.4c-12.8 9.6-32 9.6-41.6 0-12.8-9.6-12.8-28.8 0-41.6l128-121.6c6.4-6.4 12.8-9.6 19.2-9.6 9.6 0 12.8 3.2 19.2 9.6l252.8 243.2c12.8 9.6 12.8 28.8 0 41.6z"  horiz-adv-x="1024" />

    
    <glyph glyph-name="zhibo-guankanrenshu" unicode="&#58975;" d="M511.943556 88.066145c-96.857237 0-194.956234 27.65737-276.235034 77.892184-41.316724 25.512512-76.763312 55.766288-105.323779 90.084004-30.47955 36.462573-52.379671 76.42465-65.023041 118.870246-1.806196 5.870136-1.806196 12.078933-0.112887 17.949068 12.643369 44.251791 34.54349 85.342741 65.02304 122.36975 28.560467 34.54349 64.119943 64.910153 105.775328 90.084004 79.811267 48.202844 177.797376 74.844229 276.009261 74.844229 98.211884-0.112887 196.197994-26.641385 276.00926-74.844229 41.655385-25.173851 77.214861-55.427627 105.775328-89.971117 30.47955-37.027009 52.379671-78.117958 65.02304-122.36975 1.693308-5.870136 1.693308-12.078933-0.112887-17.949068-12.756256-42.332709-34.54349-82.294786-65.02304-118.870246-28.673355-34.317716-64.119943-64.571492-105.323779-90.084004-81.504575-50.347701-179.603572-78.005071-276.46081-78.005071zM129.481645 384.282218c21.787234-63.555507 71.118951-121.466652 139.867269-163.912248 71.344725-44.138904 157.477676-68.409657 242.594642-68.409657s171.249917 24.270753 242.594643 68.409657c68.748319 42.445596 118.080035 100.356741 139.867269 163.912248-21.674347 66.603462-69.764304 123.950171-139.641495 166.169992-69.877191 42.332709-156.235917 65.587477-242.933304 65.587477-86.697387 0-172.943226-23.254768-242.820417-65.587477-69.764304-42.219821-117.854261-99.566531-139.528607-166.169992zM511.943556 224.09524899999997c-88.277808 0-159.961195 71.796274-159.961195 159.961195 0 88.277808 71.796274 159.961195 159.961195 159.961195s159.961195-71.796274 159.961195-159.961195c0-88.277808-71.683387-159.961195-159.961195-159.961195z m0 256.028221c-52.944108 0-96.067027-43.122919-96.067026-96.067026 0-52.944108 43.122919-96.067027 96.067026-96.067027s96.067027 43.122919 96.067027 96.067027c0 52.944108-43.122919 96.067027-96.067027 96.067026z"  horiz-adv-x="1024" />

    
    <glyph glyph-name="more" unicode="&#58893;" d="M511.753 271.13500001l292.159 292.15499999c12.27 12.28 32.186 12.28 44.457 0 12.28-12.27 12.28-32.186 0-44.457l-314.388-314.388c-12.27-12.28-32.186-12.28-44.457 0l-314.387 314.388c-6.14 6.136-9.211 14.183-9.211 22.228s3.071 16.092 9.211 22.228c12.27 12.28 32.186 12.28 44.457 0l292.16-292.155z"  horiz-adv-x="1024" />

    
    <glyph glyph-name="shengji" unicode="&#58940;" d="M923.164 764.822c-3.481 26.632-27.228 46.689-56.848 44.507-168.36-11.302-319.859-85.635-426.605-209.334-11.042-12.783-22.734-26.371-34.595-40.505l-156.955-24.111c-12.847-2-24.487-8.367-32.75-17.98L108.02 392.922c-11.86-13.666-15.33-32.607-9.094-49.443 6.236-16.759 21.474-29.359 39.725-32.866l116.814-22.734c-7.77-80.231 33.023-131.18 70.202-160.384a339.343 339.343 0 0 1 9.834-7.25c49.742-34.866 106.2-44.48 166.23-28.215l44.077-100.601c7.196-16.343 23.098-28.138 41.57-30.763 2.65-0.363 5.223-0.52 7.743-0.52 16.083 0 31.178 6.756 41.415 18.577L743.865 103.2c8.314 9.614 12.652 21.721 12.185 34.191l-5.197 142.951c13.251 14.913 26.087 29.8 39.233 45.051 106.733 123.7 153.967 279.72 133.078 439.428z m-271.3-333.291c-41.024 0.65-73.735 32.84-73.06 71.89 0.623 39.129 34.452 70.307 75.398 69.657 41.026-0.597 73.737-32.814 73.087-71.942-0.701-39.077-34.425-70.203-75.425-69.605z m-303.1-391.62L220.129 154.852c-4.754 4.339-11.691 5.898-18.057 4.001-6.379-1.818-11.185-6.729-12.706-12.86L150.38-13.119c-1.52-2.52-2.351-5.43-2.351-8.626 0-9.846 7.664-17.277 18.94-17.693h0.364c1.754 0 3.61 0.286 5.351 0.78l168.776 48.74c6.327 1.846 11.186 6.757 12.667 12.94 1.522 6.131-0.557 12.55-5.363 16.887z"  horiz-adv-x="1024" />

    
    <glyph glyph-name="jibenxinxi" unicode="&#58916;" d="M832 640c0 140.8-115.2 256-256 256S320 780.8 320 640c0-83.2 44.8-160 108.8-204.8C217.6 377.6 64 192 64-32c0-19.2 12.8-32 32-32s32 12.8 32 32C128 198.4 313.6 384 544 384H576c140.8 0 256 115.2 256 256zM384 640c0 108.8 83.2 192 192 192s192-83.2 192-192-83.2-192-192-192-192 83.2-192 192z m448-352c0-19.2-12.8-32-32-32h-128c-19.2 0-32 12.8-32 32s12.8 32 32 32h128c19.2 0 32-12.8 32-32z m192-256c0-19.2-12.8-32-32-32h-320c-19.2 0-32 12.8-32 32s12.8 32 32 32h320c19.2 0 32-12.8 32-32zM672 192h256c19.2 0 32-12.8 32-32s-12.8-32-32-32h-256c-19.2 0-32 12.8-32 32s12.8 32 32 32z"  horiz-adv-x="1024" />

    
    <glyph glyph-name="C" unicode="&#58892;" d="M982.74084 582.505173c-25.677906 60.829215-62.574315 115.425928-109.442727 162.29434-46.868411 46.743761-101.465125 83.64017-162.294339 109.318077C648.055508 880.792696 581.243092 894.2549 512.311625 894.2549c-68.931467 0-135.868533-13.462203-198.692148-40.13731-60.829215-25.677906-115.425928-62.574315-162.29434-109.442727s-83.76482-101.465125-109.442727-162.29434C15.207304 519.556908 1.7451 452.619842 1.7451 383.688375c0-68.931467 13.462203-135.868533 40.13731-198.692149 25.677906-60.829215 62.574315-115.425928 109.442727-162.294339 46.868411-46.868411 101.465125-83.64017 162.29434-109.442727 62.948265-26.675107 129.885332-40.13731 198.692148-40.13731 68.931467 0 135.868533 13.462203 198.692149 40.13731 60.829215 25.677906 115.425928 62.574315 162.294339 109.442727 46.868411 46.868411 83.64017 101.465125 109.442727 162.294339 26.675107 62.948265 40.13731 129.885332 40.13731 198.692149 0 68.931467-13.462203 135.868533-40.13731 198.816798zM512.311625-55.079732C270.365916-55.079732 73.543518 141.867316 73.543518 383.688375 73.543518 625.634084 270.365916 822.456482 512.311625 822.456482s438.768107-196.822398 438.768107-438.768107c0-241.821059-196.822398-438.768107-438.768107-438.768107z m0 0M641.075107 321.61266l54.846013-13.836154c-11.467803-44.998661-32.159708-79.277419-61.951065-102.960925-29.791357-23.683506-66.313816-35.400609-109.442727-35.400608-44.624711 0-80.89787 9.099452-108.819477 27.298356-27.921607 18.198904-49.236762 44.500061-63.820815 78.90347-14.584054 34.403408-21.938405 71.424467-21.938405 110.938527 0 43.128911 8.226902 80.77322 24.680706 112.808277 16.453804 32.159708 39.88801 56.466464 70.302617 73.169568 30.414607 16.703104 63.820816 25.054656 100.343274 25.054656 41.38381 0 76.285819-10.595253 104.456726-31.661108 28.295557-21.065855 47.865612-50.732562 59.084114-89.000121l-53.973463-12.714303c-9.598052 30.165307-23.558856 52.103713-41.75776 65.815216-18.323554 13.711503-41.25916 20.567255-68.931467 20.567255-31.785758 0-58.460864-7.603652-79.77602-22.935606-21.315155-15.207304-36.397809-35.774559-44.99866-61.452465-8.600852-25.677906-12.963603-52.228363-12.963604-79.526719 0-35.151309 5.110651-65.939866 15.331954-92.241023 10.221302-26.301156 26.176506-45.871211 47.865612-58.834814 21.689105-12.963603 45.123311-19.445405 70.302617-19.445405 30.663907 0 56.715764 8.850152 77.906269 26.550457 21.315155 17.824954 35.649909 44.001461 43.253561 78.903469z"  horiz-adv-x="1024" />

    
    <glyph glyph-name="yuan" unicode="&#58964;" d="M512.005117-62.70897100000002C265.683035-62.70897100000002 65.290005 137.68303500000002 65.290005 384.00614c0 246.310825 200.39303 446.703855 446.715111 446.703855 246.310825 0 446.703855-200.39303 446.703855-446.703855C958.708971 137.68303500000002 758.316965-62.70897100000002 512.005117-62.70897100000002zM512.005117 726.283644c-188.738595 0-342.289784-153.545048-342.289784-342.277504 0-188.738595 153.551188-342.289784 342.289784-342.289784 188.733479 0 342.278527 153.551188 342.278527 342.289784C854.283644 572.738595 700.738595 726.283644 512.005117 726.283644z"  horiz-adv-x="1024" />

    
    <glyph glyph-name="icon-jiantous" unicode="&#58885;" d="M856.6874999999999 500.0208333333334l-312.50000000000017 312.4999999999999c-24.406300000000005 24.406299999999995-63.968800000000016 24.406299999999977-88.375-5.684341886080802e-14l-312.4999999999999-312.50000000000017c-24.406299999999995-24.406300000000005-24.406299999999977-63.968800000000016 5.684341886080802e-14-88.375 24.406300000000005-24.406299999999995 63.968800000000016-24.406299999999977 88.375 5.684341886080802e-14l205.81249999999991 205.8125000000001 2.2737367544323206e-13-599.125c1.4210854715202004e-14-34.5313 27.968800000000027-62.499999999999986 62.50000000000003-62.49999999999998s62.499999999999986 27.968800000000027 62.49999999999998 62.50000000000003l-2.2737367544323206e-13 599.125 205.8125000000001-205.81249999999991c12.187500000000004-12.187499999999991 28.187500000000007-18.31249999999999 44.187500000000014-18.312499999999986s31.999999999999993 6.093800000000016 44.1875 18.31250000000003c24.406299999999995 24.406300000000005 24.406299999999977 63.968800000000016-5.684341886080802e-14 88.375z"  horiz-adv-x="1000" />

    
    <glyph glyph-name="weizhangjilu" unicode="&#59062;" d="M511.545458 894.919111a30.549333 30.549333 0 1 1 0-60.984889c248.376889 0 450.446222-202.069333 450.446222-450.56a30.549333 30.549333 0 0 1 60.984889 0c0 282.112-229.432889 511.544889-511.431111 511.544889z m0-961.934222a30.492444 30.492444 0 1 0 0-60.984889c-282.112 0-511.431111 229.432889-511.431111 511.431111a30.549333 30.549333 0 1 0 60.928 0c0-248.433778 202.126222-450.446222 450.503111-450.446222z m287.004444 197.404444l131.754667-131.982222a31.971556 31.971556 0 1 0-45.283556-45.340444l-133.063111 133.063111a384 384 0 0 0-240.469333-84.423111c-212.081778 0-384.568889 171.235556-384.568889 381.724444S299.46368 765.155556 511.43168 765.155556c211.968 0 384.455111-171.235556 384.455111-381.781334a378.311111 378.311111 0 0 0-97.393778-253.098666z m-287.004444-64.568889c176.64 0 320.284444 142.506667 320.284444 317.610667 0 175.160889-143.644444 317.667556-320.284444 317.667556-176.753778 0-320.455111-142.506667-320.455111-317.667556 0-175.104 143.701333-317.610667 320.455111-317.610667z m-61.44 350.321778h85.959111V446.008889h-64.853333c-14.108444 1.080889-21.674667 9.329778-22.755556 24.462222 1.080889 13.994667 8.647111 21.617778 22.755556 22.812445h64.853333v29.809777H455.396124c-14.051556 1.137778-21.617778 9.329778-22.755555 24.576 2.275556 13.994667 10.467556 21.617778 24.462222 22.755556h78.961778v19.342222c1.137778 12.856889 9.272889 19.854222 24.462222 21.048889 15.246222 0 23.381333-6.485333 24.632889-19.342222v-21.048889h103.424c12.856889-1.137778 19.797333-8.704 21.048889-22.755556-1.137778-15.246222-8.192-23.324444-21.048889-24.576h-103.424v-29.809777h85.902222c10.524444-1.137778 16.327111-8.760889 17.521778-22.755556-1.137778-15.189333-6.997333-23.381333-17.464889-24.519111h-85.902222v-29.866667h85.959111c24.576 0 36.181333-9.898667 35.043556-29.809778 2.275556-73.614222-12.913778-106.382222-45.568-98.190222-15.303111 0-29.809778 1.706667-43.861334 5.233778-10.638222 3.527111-14.734222 12.288-12.344889 26.282667 3.527111 11.719111 11.093333 17.009778 22.869334 15.872 17.521778-4.664889 27.420444-2.844444 29.809777 5.233777 1.080889 4.664889 1.706667 11.719111 1.706667 21.048889 0 4.664889-2.389333 6.997333-6.997333 6.997334h-66.56v-93.013334c-1.308444-12.856889-9.500444-19.797333-24.632889-21.048889-15.246222 1.137778-23.381333 8.192-24.576 21.048889V368.753778h-87.608889c-12.913778 1.137778-19.911111 9.386667-21.048889 24.576 1.080889 14.051556 8.704 21.617778 22.755556 22.755555zM334.450347 549.432889l-1.706667 1.706667c-11.662222 11.719111-12.970667 23.893333-3.527111 36.807111 9.329778 10.524444 21.048889 11.776 34.986667 3.584 18.204444-10.410667 34.759111-23.438222 49.208888-38.684445 10.524444-20.992 3.470222-34.986667-21.105777-42.040889-8.248889 0-27.420444 12.913778-57.856 38.684445z m355.953777-298.097778c15.132444-1.251556 24.007111-7.68 26.282667-19.342222 0-15.189333-7.623111-23.381333-22.755555-24.519111H536.00768c-60.814222 0-106.951111 11.662222-138.524444 35.100444a83.797333 83.797333 0 0 1-13.994667 6.940445c-3.527111 2.389333-14.677333-7.623111-33.336889-29.866667-10.467556-11.662222-22.755556-13.425778-36.807111-5.233778-10.467556 8.192-11.093333 18.773333-1.706667 31.573334 6.769778 8.419556 13.767111 16.611556 21.048889 24.576 18.602667 19.911111 27.363556 34.531556 26.225778 43.804444V409.144889c0 3.527111-1.706667 5.233778-5.233778 5.233778h-22.755555c-12.913778 1.251556-19.342222 9.443556-19.342223 24.576 2.332444 13.994667 9.898667 21.617778 22.755556 22.755555h45.681778c19.797333 1.194667 29.240889-9.329778 28.046222-31.516444v-120.945778c5.859556-37.432889 53.134222-56.661333 142.108444-57.856h140.174223z"  horiz-adv-x="1024" />

    
    <glyph glyph-name="icon-class-a" unicode="&#58890;" d="M484.24845605 819.54475283c-229.19439375 0-415.04782588-185.79767519-415.04782587-415.04694082 0-229.19350869 185.853433-415.04605576 415.04782587-415.04605576 229.19350869 0 415.04694082 185.85254795 415.04694082 415.04605576C899.29539776 633.74707676 713.44196474 819.54475283 484.24845605 819.54475283zM484.24845605 44.79111181999997c-198.66074766 0-359.70758526 161.04683672-359.70758525 359.70670019 0 198.66163271 161.04683672 359.70847031 359.70758525 359.70847031 198.65986348 0 359.7067002-161.04683672 359.7067002-359.70847031C843.95515625 205.83706346999998 682.90831953 44.79111181999997 484.24845605 44.79111181999997zM450.52110969 614.0213100000001L304.4476775 233.67699281l53.495655 0 41.73580594 115.2346275 159.04259062 0 44.3866575-115.2346275 57.24347532 0L504.70591062 614.0213100000001 450.52110969 614.0213100000001zM414.20406687 389.83838719l41.73486188 111.60197906c8.82012281 24.0389175 15.67948406 48.19206375 20.52049781 72.63408469 5.82469875-20.63661375 14.87422219-46.92516844 26.97958781-78.85999875l39.6589275-105.376065L414.20406687 389.83838719z"  horiz-adv-x="1024" />

    
    <glyph glyph-name="gongzuojingli" unicode="&#58981;" d="M329.217 606.6c-11.746 88.094-12.95 169.562-0.602 242.688 164.382 108.423 242.266-19.185 367.736 0 9.88-76.108 6.175-178.598-5.571-239.104a227.388 227.388 0 0 0-48.851-104.84c-33.973-40.147-80.324-65.325-132.217-65.325-51.953 0-98.906 25.178-132.306 65.325-23.492 27.558-40.147 62.313-48.189 101.256z m-82.823-689.092h542.69L756.858-128h-483.9l-26.564 45.538z m571.693 391.89l59.934-220.49c21.022-77.283 11.144-132.428-80.956-132.428h-20.39V259.674h-243.5l69.842 155.799 25.329 19.155 137.216-32.949 6.776-1.807 4.337-5.391a207.089 207.089 0 0 0 40.177-85.685l1.235 0.603zM262.477-43.52h-37.105c-91.468 0-101.346 55.115-80.957 132.427L204.35 309.4c8.041 36.562 25.359 65.325 50.085 87.491l3.705 3.012 4.939 1.205 132.277 32.918 25.931-19.154 76.047-155.799H262.477V-43.52z"  horiz-adv-x="1024" />

    
    <glyph glyph-name="qunliao" unicode="&#59269;" d="M523.776 305.152c-4.096 6.656-1.024 28.672 0 31.232 2.048 5.12 12.8 28.16 29.696 46.08 3.072 3.072 6.144 6.144 9.728 9.216 1.024 1.024 2.048 1.536 3.072 2.56 39.424 41.984 64.512 101.888 64.512 167.936 0 128-92.16 231.424-205.824 231.424S218.624 690.688 218.624 562.688c0-66.048 25.088-125.952 64.512-167.936 1.024-1.024 2.048-2.048 3.072-2.56 3.072-3.072 6.144-6.656 9.728-9.216 16.896-17.92 27.648-40.96 29.696-46.08 1.024-2.56 4.096-24.576 0-31.232C259.584 194.048 38.912 153.6 22.016 72.704c-2.048-27.648-5.632-94.72 18.944-94.72s384.512-3.584 384.512-3.584 359.424 3.584 384.512 3.584 21.504 67.584 18.944 94.72c-18.432 80.384-238.592 120.832-305.152 232.448zM1003.008 147.456c-12.8 60.416-178.176 91.136-227.84 174.592-3.072 5.12-1.024 21.504 0 23.552 1.536 3.584 9.728 20.992 22.528 34.816 2.56 2.048 4.608 4.608 7.168 7.168l2.048 2.048c29.696 31.744 48.128 76.288 48.128 125.952 0 95.744-69.12 173.568-154.624 173.568-3.584 0-7.68-0.512-11.264-0.512 20.992-36.352 33.28-79.36 33.28-125.952 0-66.048-25.088-125.952-64.512-167.936-1.024-1.024-2.048-1.536-3.072-2.56-3.072-3.072-6.144-6.656-9.728-9.216-9.728-10.24-20.48-23.552-25.6-32.768v-43.52c97.792-75.264 275.968-152.064 298.496-230.4 36.352 0.512 64.512 0.512 70.144 0.512 19.456-0.512 16.896 50.176 14.848 70.656z"  horiz-adv-x="1024" />

    
    <glyph glyph-name="jiantou" unicode="&#58948;" d="M431.542857-21.942857l87.771429 87.771428-266.971429 259.657143h753.371429v124.342857H252.342857l266.971429 259.657143-87.771429 84.114286L18.285714 387.657143z"  horiz-adv-x="1024" />

    
    <glyph glyph-name="shouye" unicode="&#58880;" d="M562.805 815.3025a72.135 72.135 0 0 1-96.93 0L73.925 443.13a36.1575 36.1575 0 0 1 48.42-53.7075l6.2325 5.9175V6.899999999999977a72.315 72.315 0 0 1 72.315-72.405h210.4425v217.71a50.9175 50.9175 0 0 0 50.94 50.985h99.0225a50.9175 50.9175 0 0 0 50.94-50.985v-217.71h215.4375a72.315 72.315 0 0 1 72.3375 72.405V390.5925c16.065-14.535 38.8575-13.4325 52.2225 1.4625a36.1575 36.1575 0 0 1-2.61 51.075L562.805 815.28z"  horiz-adv-x="1024" />

    
    <glyph glyph-name="kaoshi" unicode="&#58884;" d="M327.824582 692.772953a41.129283 41.129283 0 1 0-82.258567 0 41.129283 41.129283 0 0 0 82.258567 0zM327.824582 542.167195a41.129283 41.129283 0 1 0-41.129284 40.524441 40.524441 40.524441 0 0 0 41.129284-40.524441zM245.566015 390.956595a41.129283 41.129283 0 0 1 82.258567 0 41.129283 41.129283 0 0 1-82.258567 0zM699.802658 654.063039H423.389681a37.500229 37.500229 0 0 0-37.500229 37.500229 36.895386 36.895386 0 0 0 37.500229 38.105072h275.808135a36.895386 36.895386 0 0 0 36.895386-36.895387 36.895386 36.895386 0 0 0-36.290544-38.709914zM699.802658 504.666966H423.389681a37.500229 37.500229 0 1 0 0 74.395616h275.808135a37.500229 37.500229 0 0 0 0-74.395616zM699.802658 351.641839H423.389681a36.895386 36.895386 0 0 0-37.500229 36.895386 37.500229 37.500229 0 0 0 37.500229 39.919599h275.808135a36.895386 36.895386 0 0 0 36.895386-37.500229 36.895386 36.895386 0 0 0-36.290544-39.314756zM245.566015 249.423473a41.129283 41.129283 0 0 1 82.258567 0 41.129283 41.129283 0 1 1-82.258567 0zM699.802658 212.528086H423.389681a36.895386 36.895386 0 0 0-37.500229 36.895387 37.500229 37.500229 0 0 0 37.500229 37.500229h275.808135a36.895386 36.895386 0 0 0 36.895386-37.500229 36.895386 36.895386 0 0 0-36.290544-36.895387zM1088.716322 714.54728c0 134.275013-49.597077 181.45272-110.686159 181.45272H225.001373a114.315214 114.315214 0 0 1-114.315214-114.315214v-717.343088H0c0-167.541345 60.48424-192.339884 137.904068-192.339883H798.39197a113.710371 113.710371 0 0 1 114.315214 113.710371V714.54728z m-221.372318-725.810882a68.952034 68.952034 0 0 0-68.952034-68.347191c-60.48424 0-91.936045 13.306533-91.936045 146.976703H156.654182V781.684786A68.952034 68.952034 0 0 0 225.001373 850.63682h671.979908A265.525814 265.525814 0 0 1 867.344004 714.54728v-728.835094z"  horiz-adv-x="1088" />

    
    <glyph glyph-name="B" unicode="&#58887;" d="M480.153 879.545c-260.566 0-471.856-211.26-471.856-471.855 0-260.564 211.29-471.855 471.856-471.855 260.566 0 471.855 211.29 471.855 471.855 0.001 260.595-211.288 471.855-471.855 471.855z m0-880.797c-225.851 0-408.942 183.09-408.942 408.942 0 225.884 183.09 408.941 408.942 408.941s408.942-183.058 408.942-408.94c0-225.852-183.09-408.943-408.942-408.943zM577.351 420.715c19.046 9.37 33.179 21.69 42.702 36.988 9.275 15.358 14.007 31.579 14.007 49.027 0 18.557-5.285 36.402-15.911 53.391-10.57 17.112-25.255 29.707-43.933 37.939-18.737 8.171-43.56 12.288-74.464 12.288H347.628V205.06H502.21c25.744 0 47.556 2.274 65.432 6.697 17.695 4.548 32.502 11.242 44.299 20.09 11.796 8.788 21.689 21.381 29.736 37.725 7.987 16.342 11.98 33.915 11.98 52.93 0 23.592-6.573 44.052-19.723 61.47-13.208 17.235-32.007 29.493-56.584 36.742z m-176.085 141.74h80.98c29.118 0 49.701-1.811 61.744-5.59 11.92-3.777 21.195-10.75 27.585-21.01 6.515-10.201 9.71-22.09 9.71-35.543 0-14.162-3.503-25.99-10.384-35.36-6.943-9.46-17.203-16.19-30.844-20.213-10.322-3.134-27.28-4.7-51.117-4.7h-87.675V562.456z m188.866-274.082c-5.407-9.83-12.104-17.325-20.521-22.485-8.233-5.16-18.617-8.847-30.905-11.059-7.065-1.353-19.23-1.966-36.494-1.966H401.266V392.146h93.76c25.74 0 45.523-2.211 59.348-6.728 13.64-4.453 24.393-12.317 32.132-23.468 7.742-11.182 11.613-24.33 11.613-39.446-0.001-12.872-2.705-24.3-7.987-34.13z"  horiz-adv-x="1024" />

    
    <glyph glyph-name="shoucang" unicode="&#58896;" d="M777.74848-127.488c-12.288 0-24.576 3.2-37.888 10.688l-206.592 113.088a39.04 39.04 0 0 1-20.48 5.312 58.368 58.368 0 0 1-20.48-4.288L286.74048-116.8a71.424 71.424 0 0 0-38.848-10.688 85.632 85.632 0 0 0-82.88 101.376l39.936 238.912a49.152 49.152 0 0 1-13.312 40.512L25.81248 420.8a87.808 87.808 0 0 0-21.44 89.6c10.24 32 35.84 54.4 67.52 59.776l229.12 35.2a45.696 45.696 0 0 1 33.792 24.512l102.272 217.6a82.56 82.56 0 0 0 74.688 48c31.68 0 60.352-18.112 74.688-48l102.272-217.6c7.168-13.888 19.456-22.4 33.792-24.512l229.12-35.2c31.744-5.376 57.28-27.776 67.52-58.688a89.6 89.6 0 0 0-20.48-89.6l-164.672-168.576a46.08 46.08 0 0 1-13.312-40.512l38.912-237.888c4.096-25.6-2.048-51.2-18.432-70.4-15.36-20.224-38.912-32-63.424-32z m-13.312 65.088c5.12-2.112 9.216-3.2 12.288-3.2 7.168 0 14.336 3.2 19.456 9.6 5.12 6.4 6.08 14.912 5.12 20.288l-38.912 237.824c-6.144 34.176 5.12 71.488 29.696 94.976l164.672 169.6c6.144 6.4 8.192 16 6.144 26.688a23.36 23.36 0 0 1-20.48 17.024l-229.12 35.2a102.016 102.016 0 0 0-77.76 58.688L533.26848 820.8a22.144 22.144 0 0 1-21.504 13.888c-9.216 0-17.408-5.312-22.528-14.912L386.96448 604.288a104.384 104.384 0 0 0-77.76-58.688l-229.12-35.2a26.88 26.88 0 0 1-19.456-17.024v-1.088a24.064 24.064 0 0 1 6.144-25.6l165.76-169.6c24.512-24.576 34.752-59.776 29.632-94.976l-38.912-237.824a20.864 20.864 0 0 1 5.12-19.2c5.12-6.4 12.288-9.6 19.456-9.6 5.12 0 8.192 1.024 11.264 2.112l206.656 113.088c13.248 8.512 29.632 12.8 47.04 12.8 15.36 0 31.68-4.288 47.04-12.8l204.608-113.088z"  horiz-adv-x="1024" />

    
    <glyph glyph-name="wode" unicode="&#58923;" d="M948.760381-118.223238H75.093333c-18.066286 0-36.132571 9.020952-47.420952 22.576762-11.288381 15.798857-15.798857 33.865143-11.288381 51.931428C61.561905 186.514286 248.929524 358.107429 474.697143 376.173714c75.629714 0 157.476571-9.606095 239.299047-42.910476 23.698286-9.581714 31.597714-15.798857 45.153524-22.552381 130.925714-74.50819 221.232762-203.190857 250.587429-354.425905 4.510476-18.066286 0-36.132571-13.55581-51.931428-11.288381-13.531429-29.354667-22.576762-47.396571-22.576762zM76.239238-81.529905c-7.314286 0-14.116571 2.82819-18.041905 7.899429-0.585143 0.560762-0.585143 1.121524-1.145904 1.706666-5.632 5.607619-6.217143 15.213714-5.071239 20.870096 41.764571 214.454857 217.283048 375.296 427.227429 390.534095h16.920381c101.034667 0 198.095238-31.597714 245.51619-61.513143 124.14781-74.50819 207.11619-191.317333 233.081905-329.020952 1.121524-7.899429-0.585143-15.238095-6.217143-22.576762-3.949714-5.071238-10.727619-7.899429-18.041904-7.899429H76.214857zM496.152381 325.948952c98.182095 0 192.414476-30.47619 238.128762-59.270095h0.585143c120.758857-71.68 200.899048-185.10019 225.743238-319.439238 0.560762-2.80381 0.560762-6.753524-3.949714-11.849143-0.560762-1.121524-3.413333-2.243048-6.777905-2.243047H76.239238c-3.388952 0-6.217143 1.121524-6.777905 2.243047a6.802286 6.802286 0 0 1-2.803809 2.828191c-1.145905 1.121524-2.267429 4.510476-1.145905 8.46019 40.643048 208.262095 210.505143 364.007619 414.232381 379.270095 5.12-0.585143 10.727619 0 16.384 0z m0 28.208762c-5.656381 0-11.873524 0-17.529905-0.560762-216.697905-15.798857-397.312-180.614095-440.198095-401.822476-2.243048-11.288381 0-24.84419 9.020952-33.889524 6.777905-9.020952 18.066286-13.531429 29.354667-13.531428h873.642667c11.288381 0 22.576762 4.510476 29.354666 13.555809 6.777905 9.020952 11.288381 20.309333 9.020953 33.865143-27.087238 144.457143-112.88381 262.972952-239.299048 338.602667-47.957333 29.915429-146.16381 63.780571-253.391238 63.780571z m16.920381 1.706667c-142.238476 0-259.632762 117.369905-259.632762 259.584C253.44 757.686857 370.834286 875.056762 513.072762 875.056762c142.214095 0 259.608381-117.369905 259.608381-259.608381 0-142.214095-117.394286-259.608381-259.608381-259.608381zM513.072762 392.533333c-123.050667 0-222.939429 99.888762-222.939429 222.915048 0 123.050667 99.888762 222.939429 222.939429 222.939429 123.026286 0 222.915048-99.888762 222.915048-222.939429 0-123.026286-99.888762-222.915048-222.915048-222.915048zM513.072762 824.271238c115.126857 0 208.798476-93.671619 208.798476-208.822857 0-115.126857-93.671619-208.798476-208.798476-208.798476-115.151238 0-208.822857 93.671619-208.822857 208.798476 0 115.151238 93.671619 208.822857 208.822857 208.822857z m0 28.233143a236.982857 236.982857 0 0 1-237.056-237.056 236.982857 236.982857 0 0 1 237.056-237.031619 236.982857 236.982857 0 0 1 237.031619 237.031619 236.982857 236.982857 0 0 1-237.031619 237.056z"  horiz-adv-x="1024" />

    
    <glyph glyph-name="shoucang1" unicode="&#58942;" d="M786.92352-105.588736c-11.065344 0-23.977984 3.688448-35.047424 9.222144l-239.822848 119.914496-241.668096-119.914496c-23.98208-12.91264-55.345152-11.06944-77.479936 5.537792-22.13888 16.59904-35.053568 46.118912-29.519872 73.78944L213.1968 241.23392l-190.01344 177.1008c-20.291584 20.291584-27.670528 51.652608-20.291584 77.479936 9.224192 27.672576 31.361024 47.96416 60.878848 51.654656l263.806976 47.96416L445.642752 835.25632c12.914688 25.827328 38.742016 42.430464 66.412544 42.430464 27.670528 0 55.343104-16.603136 66.412544-42.430464l118.065152-239.822848 263.806976-46.12096c27.670528-3.688448 51.654656-23.98208 59.0336-51.652608 9.222144-27.672576 1.841152-57.188352-18.448384-77.481984l-190.015488-178.944 47.96416-258.271232c5.533696-29.515776-7.378944-57.1904-29.515776-73.78944-11.06944-9.22624-25.827328-14.761984-42.43456-14.761984z"  horiz-adv-x="1024" />

    
    <glyph glyph-name="shijian" unicode="&#59073;" d="M548.574038 386.374938l185.97588-117.212303-38.510526-60.725327-219.663455 137.819454v317.145507h72.198101v-277.027331z m-36.09905 436.476985A439.473061 439.473061 0 0 1 73.075002 383.525012a439.473061 439.473061 0 0 1 439.326911-439.32691 439.473061 439.473061 0 0 1 439.32691 439.32691A439.473061 439.473061 0 0 1 512.474988 822.924998z m0 72.198102c282.215657 0 511.525012-229.236281 511.525012-511.525013 0-282.215657-229.309356-511.525012-511.525012-511.525012-282.288732 0-511.525012 229.309356-511.525013 511.525012 0 282.288732 229.236281 511.525012 511.525013 511.525013z"  horiz-adv-x="1024" />

    
    <glyph glyph-name="zhengjian" unicode="&#59066;" d="M887.467 733.867H136.533c-38.4 0-72.533-34.134-72.533-72.534V102.4c0-38.4 34.133-72.533 72.533-72.533h750.934C925.867 29.867 960 64 960 102.4V665.6c0 38.4-34.133 68.267-72.533 68.267zM307.2 584.533c21.333 21.334 51.2 29.867 76.8 29.867s55.467-12.8 76.8-34.133 34.133-46.934 34.133-76.8-12.8-55.467-34.133-76.8S413.867 396.8 384 396.8s-55.467 12.8-76.8 29.867-29.867 51.2-29.867 81.066 8.534 55.467 29.867 76.8zM567.467 192c0-17.067-17.067-34.133-34.134-34.133h-294.4c-21.333 0-34.133 17.066-34.133 34.133v55.467c0 64 55.467 119.466 119.467 119.466H448c64 0 119.467-55.466 119.467-119.466V192z m256 46.933c0-21.333-17.067-34.133-34.134-34.133h-115.2C652.8 204.8 640 221.867 640 238.933c0 21.334 17.067 34.134 34.133 34.134h115.2c17.067 0 34.134-17.067 34.134-34.134z m0 145.067c0-21.333-17.067-34.133-34.134-34.133h-153.6c-21.333 0-34.133 17.066-34.133 34.133 0 21.333 17.067 34.133 34.133 34.133h153.6c17.067 0 34.134-12.8 34.134-34.133z m0 145.067c0-21.334-17.067-34.134-34.134-34.134H605.867c-21.334 0-34.134 17.067-34.134 34.134 0 21.333 17.067 34.133 34.134 34.133h183.466c17.067 4.267 34.134-12.8 34.134-34.133z"  horiz-adv-x="1024" />

    
    <glyph glyph-name="jiantou2" unicode="&#58891;" d="M223.70091767 0.7595489999999927l383.064442 383.063419-388.097062 388.09603901 0.070608 0.03376899c-12.709463 13.137205-20.529569 31.024597-20.529569 50.731428 0 40.376593 32.736589 73.11215799 73.115228 73.112158 19.705807 0 37.591153-7.819083 50.730405-20.528546l0.034792 0.035816L760.77601267 436.62249799l-0.035816-0.03581599c13.779841-13.28149101 22.3838-31.91589701 22.3838-52.585659 0-0.07163101 0-0.106424 0-0.178055 0-0.072655 0-0.10847 0-0.144286 0-20.66976201-8.603959-39.341007-22.38380001-52.622498l0.03581601-0.034792L322.09283167-107.66281300000003l-0.180102 0.179079c-13.139252-12.56619999-30.950919-20.313651-50.587142-20.313651-40.378639 0-73.115228 32.736589-73.115228 73.114205C198.21138367-32.514275 208.09959067-12.665205000000014 223.70091767 0.7595489999999927z"  horiz-adv-x="1024" />

    
    <glyph glyph-name="kaoqinjilu" unicode="&#59124;" d="M880.896 82.773333l-84.992 65.28c48 73.130667 27.605333 171.349333-45.525333 219.392s-171.349333 27.648-219.349334-45.525333a158.464 158.464 0 0 1 237.994667-205.056l86.912-66.261333c8.96-7.04 21.930667-5.504 28.970667 3.456l0.298666 0.384a20.650667 20.650667 0 0 1-3.84 28.8l-0.469333-0.469334z m-100.821333 151.722667a118.101333 118.101333 0 1 0 0 0.469333v-0.469333zM492.970667 104.405333H216.448v336.042667h576.128v-36.48c18.218667-12.501333 34.389333-27.733333 48-45.141333V632.490667a45.098667 45.098667 0 0 1-48.042667 48h-96v23.978666a24.021333 24.021333 0 0 1-48 0.042667v-24.021333H360.490667v23.978666a24.021333 24.021333 0 1 1-48 0v-24.021333h-96a45.141333 45.141333 0 0 1-48.042667-48v-528.085333a45.098667 45.098667 0 0 1 48.042667-48h321.664a216.661333 216.661333 0 0 0-45.184 48.042666zM216.448 632.490667h96v-24.021334a24.021333 24.021333 0 0 1 48-0.042666v24.064h288.042667v-24.021334a23.978667 23.978667 0 0 1 48 0v24.021334h96v-144.042667H216.448V632.490667z"  horiz-adv-x="1024" />

    
    <glyph glyph-name="lingdang" unicode="&#58907;" d="M512 640c117.632 0 213.333-95.701 213.333-213.333v-149.334a64.057 64.057 0 0 1 12.8-38.4l51.2-68.266H234.667l51.2 68.266a64.057 64.057 0 0 1 12.8 38.4V426.667C298.667 544.299 394.368 640 512 640m0 64c-153.173 0-277.333-124.16-277.333-277.333v-149.334l-64-85.333v-42.667c0-23.466 19.2-42.666 42.666-42.666h597.334c23.466 0 42.666 19.2 42.666 42.666V192l-64 85.333V426.667C789.333 579.84 665.173 704 512 704z m0-661.333a64 64 0 0 0-64 64h-64c0-70.571 57.43-128 128-128s128 57.429 128 128h-64a64 64 0 0 0-64-64zM512 640a42.667 42.667 0 1 0-0.021 85.312A42.667 42.667 0 0 0 512 640h97.621a105.963 105.963 0 0 1 9.046 42.667c0 58.816-47.851 106.666-106.667 106.666s-106.667-47.85-106.667-106.666c0-15.19 3.307-29.568 9.046-42.667H512z"  horiz-adv-x="1024" />

    
    <glyph glyph-name="dui" unicode="&#58930;" d="M515.5 877c-272.6 0-493-220.4-493-493s220.4-493 493-493 493 220.4 493 493-220.4 493-493 493z m0-928c-237.8 0-435 197.2-435 435s197.2 435 435 435 435-197.2 435-435-197.2-435-435-435zM775.3 555.9c-15.4 15.4-40.4 15.4-55.8 0l-251-251-139.4 139.5c-15.1 15.7-40.1 16.2-55.8 1.1-15.7-15.1-16.2-40.1-1.1-55.8l1.1-1.1 167.3-167.3c15.4-15.4 40.4-15.4 55.8 0l278.9 278.9c15.4 15.4 15.4 40.3 0 55.7z"  horiz-adv-x="1024" />

    
    <glyph glyph-name="jianchagengxin" unicode="&#58997;" d="M735.81 141.2H511.67c-20.65-0.02-37.4 16.7-37.42 37.35-0.02 20.65 16.7 37.4 37.35 37.42H735.81c82.49-0.08 149.43 66.73 149.51 149.23 0.07 78.79-61.06 144.09-139.69 149.19l-22.06 1.3-9.37 19.86C661.75 647.4 528.56 695.56 416.7 643.12a223.725 223.725 0 0 1-107.57-107.57l-9.37-19.86-21.97-1.39c-82.32-5.34-144.72-76.41-139.37-158.73 5.1-78.62 70.4-139.76 149.19-139.69 20.65-0.02 37.37-16.77 37.35-37.42-0.02-20.62-16.73-37.33-37.35-37.35-123.77 0.51-223.71 101.27-223.2 225.05 0.45 109.12 79.42 202.07 187.04 220.13 80.43 143.74 262.15 195.07 405.89 114.65a298.245 298.245 0 0 0 114.65-114.65c122.13-20.2 204.76-135.57 184.57-257.7-17.87-108.06-111.22-187.38-220.74-187.57v0.18zM549.01 29.13a37.583 37.583 0 0 0-26.45 10.94L410.5 152.14c-14.58 14.51-14.64 38.1-0.12 52.68l0.12 0.12 112.07 112.07c14.61 14.61 38.29 14.61 52.9 0s14.61-38.29 0-52.9l-85.62-85.62 85.62-85.62c14.58-14.65 14.53-38.35-0.13-52.93a37.45 37.45 0 0 0-26.23-10.9l-0.1 0.09z"  horiz-adv-x="1024" />

    
    <glyph glyph-name="kecheng" unicode="&#59116;" d="M498.688-7.168l-7.168 4.096-352.256 129.024-19.456 28.672V649.216l37.888 27.648 43.008-16.384v81.92l39.936 25.6 268.288-133.12 270.336 133.12 39.936-26.624V660.48l44.032 16.384 36.864-27.648v-493.568L880.64 126.976 531.456-3.072l-8.192-4.096h-24.576zM535.552 588.8v-531.456l233.472 115.712V703.488L535.552 588.8zM251.904 173.056l233.472-115.712V588.8L251.904 703.488v-530.432z m567.296 430.08V158.72l30.72 11.264V614.4l-30.72-11.264zM171.008 169.984l30.72-11.264V603.136l-30.72 11.264v-444.416z m424.96 174.08l116.736 57.344V343.04l-116.736-57.344v58.368zM307.2 343.04v58.368l116.736-57.344v-58.368L307.2 343.04z m288.768 155.648l116.736 57.344v-58.368l-116.736-57.344v58.368z m-288.768-1.024v58.368l116.736-57.344v-58.368L307.2 497.664z"  horiz-adv-x="1024" />

    
    <glyph glyph-name="jiantou1" unicode="&#59018;" d="M614.621184 18.752512l320 320c24.991744 24.991744 24.991744 65.50528 0 90.496l-320 320c-24.991744 24.992768-65.50528 24.992768-90.497024 0s-24.991744-65.504256 0-90.496L734.876672 448H121.372672c-35.35872 0-64-28.64128-64-64.001024s28.640256-64 64-64.001024h613.504L524.12416 109.24544c-12.480512-12.479488-18.751488-28.864512-18.751488-45.248512s6.240256-32.768 18.751488-45.248512c24.992768-24.991744 65.50528-24.991744 90.497024 0z"  horiz-adv-x="1024" />

    
    <glyph glyph-name="miaobiao" unicode="&#58886;" d="M832.268922 644.825061c-176.782957 176.781957-463.454887 176.781957-640.237844 0-176.881957-176.782957-176.881957-463.454887-0.1-640.237843 176.782957-176.782957 463.454887-176.782957 640.237844 0 176.881957 176.782957 176.881957 463.454887 0.1 640.237843z m-33.896992-606.340852c-69.592983-69.592983-158.184961-108.489974-249.075939-116.788971l-2.799999 4.499999L517.099999-26.809775l-29.397993-46.994988-3.299999-5.199999c-94.189977 6.399998-186.580954 45.495989-258.573937 117.488971-69.992983 69.992983-108.989973 159.383961-116.988972 250.874939l9.599998 5.999999 46.994989 29.396992-46.995989 29.396993-9.598998 5.999999c7.999998 91.489978 46.895989 180.781956 116.988972 250.874939 71.992982 71.992982 164.38396 111.088973 258.574937 117.487971l3.199999-5.199999L516.999999 676.322054l29.396993 46.995988 2.799999 4.499999c90.889978-8.299998 179.481956-47.295988 249.074939-116.789971 71.592983-71.591983 110.589973-163.18296 117.388971-256.773938l-0.1-0.1-46.995988-29.396993 46.995988-29.396992 0.1-0.1c-6.699998-93.590977-45.795989-185.181955-117.288971-256.774938zM501.101003 839.805014h31.996992v-53.293987H501.100003zM431.90802 895.9H602.389978v-42.59599H431.90802z m99.589975-525.148872L514.399999 656.423058 497.400004 371.251128c-18.497995-6.699998-31.695992-24.196994-31.695993-44.894989 0-26.497994 21.496995-47.895988 47.894989-47.895988 20.997995 0 38.595991 13.598997 45.094989 32.296992l195.380952 15.598996-195.379952 15.697996c-4.499999 13.098997-14.399996 23.597994-27.197994 28.696993z"  horiz-adv-x="1024" />

    
    <glyph glyph-name="danbianjiantou" unicode="&#58908;" d="M527.7 494.4c-17.8 13.8-21 39.4-7.1 57.1 13.8 17.8 39.4 21 57.1 7.1l366.5-285.1c30.6-23.8 13.8-72.9-25-72.9H104.7c-22.5 0-40.7 18.2-40.7 40.7S82.2 282 104.7 282h695.8L527.7 494.4z"  horiz-adv-x="1024" />

    
    <glyph glyph-name="rizhichakan" unicode="&#58894;" d="M486.458 104.2c-2.322-4.644-4.644-9.288-4.644-13.932 2.322-16.254 16.254-27.864 32.508-27.864 13.932 2.322 25.542 13.932 27.864 27.864 0 4.644-2.322 9.288-4.644 13.932 30.186 13.932 41.796 51.083 27.864 81.27-13.932 30.185-51.084 41.795-81.27 27.863s-41.796-51.084-27.864-81.27c6.966-11.61 18.576-20.897 30.186-27.863z m390.095 255.419h-594.43V589.497c0 127.71 104.49 229.877 232.199 227.555h13.932C648.998 805.442 744.2 703.274 744.2 580.21v-60.372c2.322-20.898 20.898-37.152 41.795-34.83 18.576 2.322 34.83 16.254 34.83 34.83v69.66C820.825 759.002 681.505 896 512 896c-9.288 0-18.576 0-27.864-2.322-160.218-16.254-280.961-153.252-278.64-313.47V359.62h-58.05c-41.795 0-76.625-34.83-76.625-76.626v-334.367c0-41.796 34.83-76.626 76.626-76.626H874.23c41.796 0 76.626 34.83 76.626 76.626V282.993c2.322 41.796-32.508 76.626-74.304 76.626z m0-410.993H147.447V282.993H874.23v-334.367z"  horiz-adv-x="1024" />

    
    <glyph glyph-name="erji" unicode="&#58881;" d="M846.4 395.2c-0.8 87.2-36 169.6-97.6 232-64 63.2-147.2 97.6-236.8 97.6-89.6 0-172.8-34.4-236-97.6-62.4-62.4-96.8-144-97.6-232-60.8-28-100-89.6-100-156.8v-12c0-96 77.6-173.6 173.6-173.6 50.4 0 92 40.8 92 92v176c0 48-37.6 88-85.6 91.2 4.8 60 30.4 116 73.6 158.4 48 48 112 74.4 180 74.4s132-26.4 180-74.4C734.4 528 760 472 765.6 412c-48-3.2-85.6-43.2-85.6-91.2v-176c0-50.4 40.8-92 92-92 96 0 173.6 77.6 173.6 173.6v12c0 67.2-39.2 128.8-99.2 156.8z m39.2-173.6c0-62.4-51.2-113.6-113.6-113.6-17.6 0-32 14.4-32 32v176c0 17.6 14.4 32 32 32 62.4 0 113.6-51.2 113.6-113.6v-12.8zM284 140c0-17.6-14.4-32-32-32-62.4 0-113.6 51.2-113.6 113.6v12c0 62.4 51.2 113.6 113.6 113.6 17.6 0 32-14.4 32-32v-175.2zM772 327.2c-6.4 0-12-5.6-12-12v-176c0-6.4 5.6-12 12-12 52 0 93.6 42.4 93.6 93.6V232c0 52.8-42.4 95.2-93.6 95.2zM158.4 221.6c0-52 42.4-93.6 93.6-93.6 6.4 0 12 5.6 12 12v176c0 6.4-5.6 12-12 12-52 0-93.6-42.4-93.6-93.6v-12.8zM904.8 248c0.8-4.8 0.8-9.6 0.8-15.2v-11.2 12c0 4.8-0.8 9.6-0.8 14.4zM512 680z"  horiz-adv-x="1024" />

    
    <glyph glyph-name="bangzhu" unicode="&#58888;" d="M512-125.724C230.514-125.724 2.276 102.514 2.276 384S230.514 893.724 512 893.724 1021.724 665.486 1021.724 384 793.486-125.724 512-125.724z m0 67.925c243.94 0 441.8 197.746 441.8 441.799S755.94 825.8 512 825.8 70.2 627.94 70.2 384 268.06-57.8 512-57.8zM525.198 633.173c46.422 0 84.082-12.288 113.095-38.457 29.014-25.372 43.463-60.188 43.463-103.651 0-35.499-9.443-65.195-27.534-88.405-6.485-7.965-26.851-26.852-60.87-56.548-13.768-11.605-23.894-24.69-30.493-37.66-7.965-14.45-11.606-30.493-11.606-47.9v-12.289h-77.596v12.288c0 26.852 4.323 50.062 14.45 68.836 9.443 20.252 36.977 50.062 81.92 89.884l12.288 13.767c13.084 16.726 20.252 34.02 20.252 52.907 0 25.372-7.282 44.942-21.049 59.392-14.45 14.45-35.498 21.731-61.667 21.731-32.655 0-56.548-10.126-70.998-31.175-13.084-17.408-19.57-42.097-19.57-73.955h-76.117c0 52.906 15.246 94.208 45.625 124.7 30.72 31.29 72.818 46.535 126.407 46.535z m-12.97-424.05c15.246 0 28.216-4.323 38.456-14.45 10.127-9.443 15.247-21.73 15.247-36.977 0-15.246-5.803-27.534-15.93-37.66-10.125-9.444-23.21-14.45-37.66-14.45-14.45 0-27.534 5.12-37.66 15.246-10.126 10.126-15.246 22.528-15.246 36.978 0 15.246 5.12 27.534 15.246 36.978 9.899 10.012 22.983 14.336 37.547 14.336z"  horiz-adv-x="1024" />

    
    <glyph glyph-name="gou" unicode="&#58957;" d="M421.12 149.12l-256 216.96a32 32 0 0 0 40.96 48.64l208.64-175.36 304.64 355.2a32 32 0 0 0 48.64-41.6z"  horiz-adv-x="1024" />

    
    <glyph glyph-name="tuoyuanxingx" unicode="&#59197;" d="M512 384m-512 0a512 512 0 1 1 1024 0 512 512 0 1 1-1024 0Z"  horiz-adv-x="1024" />

    
    <glyph glyph-name="riqiqishu" unicode="&#58898;" d="M831.970107 831.910322h-127.940214V863.955161a32.044839 32.044839 0 0 1-64.089678 0v-32.044839h-255.88043V863.955161a32.044839 32.044839 0 0 1-64.089678 0v-32.044839H191.312471a191.312471 191.312471 0 0 1-191.312471-186.051378V59.00794a191.312471 191.312471 0 0 1 191.312471-186.051378h640.657636a191.312471 191.312471 0 0 1 191.312471 191.312471V640.11957a191.312471 191.312471 0 0 1-191.312471 191.790752z m127.940215-767.880429a128.179355 128.179355 0 0 0-127.940215-127.940215H191.312471a127.940215 127.940215 0 0 0-127.940215 127.940215v416.104624h896.538066z m0 479.955161H64.089678v95.656235A127.940215 127.940215 0 0 0 191.312471 768.059785h127.940215V704.687529a32.044839 32.044839 0 0 1 64.089677 0V768.059785h255.88043V704.687529a32.044839 32.044839 0 0 1 64.089678 0V768.059785h127.940215a128.179355 128.179355 0 0 0 127.940215-127.940215zM296.295189 274.23447H186.529659a36.58851 36.58851 0 0 0 0 73.17702h109.76553a36.58851 36.58851 0 1 0 0-73.17702zM588.764129 274.23447H442.410089a36.58851 36.58851 0 0 0 0 73.17702h146.35404a36.58851 36.58851 0 0 0 0-73.17702zM844.644559 274.23447h-109.52639a36.58851 36.58851 0 1 0 0 73.17702h109.52639a36.58851 36.58851 0 1 0 0-73.17702zM296.295189 54.94255H186.529659a36.58851 36.58851 0 1 0 0 73.17702h109.76553a36.58851 36.58851 0 0 0 0-73.17702zM588.764129 54.94255H442.410089a36.58851 36.58851 0 0 0 0 73.17702h146.35404a36.58851 36.58851 0 0 0 0-73.17702zM844.644559 54.94255h-109.52639a36.58851 36.58851 0 1 0 0 73.17702h109.52639a36.58851 36.58851 0 1 0 0-73.17702z"  horiz-adv-x="1024" />

    
    <glyph glyph-name="tuichudenglu" unicode="&#58895;" d="M655.902 313.998v-169.484c0-12.792-9.594-25.583-25.583-25.583H406.472V662.56c0 22.384-12.791 44.769-35.176 54.362-12.791 9.594-214.253 115.122-214.253 115.122h476.474c12.791 0 25.582-12.792 25.582-25.583v-233.44h63.957V857.626C719.858 876.813 703.869 896 681.484 896H70.702C48.317 896 32.328 876.813 32.328 857.626V93.35c0-12.792 6.395-28.78 19.187-35.176 15.989-9.594 243.034-137.506 326.177-182.276 19.187-9.593 28.78 0 28.78 12.791V54.975h275.012c22.385 0 38.374 19.187 38.374 38.374V313.998h-63.956zM991.672 441.91l-204.66 204.66v-137.506H448.044v-137.506h338.968v-137.506l204.66 207.858z"  horiz-adv-x="1024" />

    
    <glyph glyph-name="cha" unicode="&#58889;" d="M560.265 384L512 432.265l248.934 248.934 48.265-48.265L560.265 384l248.934-248.934-48.265-48.265L512 335.735 263.066 86.801 214.8 135.066 463.735 384 512 335.735 263.066 86.801 214.8 135.066 463.735 384 214.801 632.934l48.265 48.265L512 432.265l248.934 248.934 48.265-48.265z"  horiz-adv-x="1024" />

    
    <glyph glyph-name="saoma" unicode="&#58976;" d="M96 416h832a32 32 0 0 0 0-64H96a32 32 0 0 0 0 64z m32 416h224a32 32 0 0 0 0-64H160a32 32 0 0 1-32-32v-192a32 32 0 0 0-64 0V768a64 64 0 0 0 64 64z m32-832h192a32 32 0 0 0 0-64H128a64 64 0 0 0-64 64V224a32 32 0 0 0 64 0v-192a32 32 0 0 1 32-32z m704 0a32 32 0 0 1 32 32V224a32 32 0 0 0 64 0v-224a64 64 0 0 0-64-64H672a32 32 0 0 0 0 64h192z m96 544a32 32 0 0 0-64 0V736a32 32 0 0 1-32 32H672a32 32 0 0 0 0 64h224a64 64 0 0 0 64-64v-224z"  horiz-adv-x="1024" />

    
    <glyph glyph-name="danjiantou" unicode="&#59056;" d="M797.312189 478.610939H744.846123l89.450343-137.615911H104.072033v-51.605967H920.30641l-122.994221 189.221878z"  horiz-adv-x="1024" />

    
    <glyph glyph-name="soushuo" unicode="&#58897;" d="M222.6944 673.2032A323.1488 323.1488 0 0 1 133.6832 384c19.2512 87.3728 64.512 172.7488 135.0144 243.3024C339.2512 697.8815999999999 424.6272 743.1168 512 762.3679999999999c-101.632 19.1488-210.688-10.5216-289.3056-89.1648zM989.44 73.88160000000005l-121.7024 121.7024a118.016 118.016 0 0 1-92.8 34.1248c114.4576 165.5552 97.92 394.3936-49.4848 541.824-165.9392 165.9904-435.0464 165.9904-601.0368 0-165.9392-165.9904-165.9392-435.1232 0-601.1136 147.4048-147.4304 376.064-163.84 541.7216-49.3824-2.56-33.28 8.8576-67.5328 34.1248-92.8l121.7024-121.728c46.08-45.9776 121.3696-45.9776 167.3472 0 46.208 45.9776 46.208 121.2928 0.128 167.3728zM676.096 219.904c-138.6752-138.6752-363.392-138.6752-502.016 0-138.6752 138.6752-138.6752 363.4432 0 502.1184 138.624 138.6752 363.3408 138.6752 502.016 0 138.6496-138.5728 138.6496-363.4432 0-502.1184z"  horiz-adv-x="1024" />

    
    <glyph glyph-name="shanchu" unicode="&#58996;" d="M517.59 874.391c-100.299 0-181.703-79.514-185.167-179.34H98.603c-25.979 0-47.235-21.099-47.235-47.236 0-25.98 21.099-47.237 47.236-47.237h52.117v-528.416c0-99.196 67.233-180.285 150.37-180.285h423.55c82.98 0 150.37 80.616 150.37 180.285V600.263h47.236c25.98 0 47.236 21.1 47.236 47.237 0 25.98-21.099 47.236-47.236 47.236H702.441C699.449 794.876 617.888 874.39 517.59 874.39z m-96.677-179.34c3.464 51.172 45.19 90.85 96.834 90.85s93.37-39.835 96.362-90.85H420.913z m-119.98-714.842c-29.444 0-61.88 37.789-61.88 91.953V600.263h547.311V71.69c0-54.007-32.436-91.954-61.88-91.954H300.933v0.473z m0 0M364.387 93.733c21.57 0 39.363 21.571 39.363 48.653V419.978c0 27.082-17.635 48.654-39.363 48.654-21.572 0-39.364-21.572-39.364-48.654v-277.592c0-26.924 17.32-48.653 39.364-48.653z m142.496 0c21.571 0 39.363 21.571 39.363 48.653V419.978c0 27.082-17.635 48.654-39.363 48.654-21.571 0-39.364-21.572-39.364-48.654v-277.592c0-26.924 17.793-48.653 39.364-48.653z m149.896 0c21.571 0 39.364 21.571 39.364 48.653V419.978c0 27.082-17.635 48.654-39.364 48.654-21.571 0-39.363-21.572-39.363-48.654v-277.592c0-26.924 17.162-48.653 39.363-48.653z m0 0"  horiz-adv-x="1024" />

    
    <glyph glyph-name="datika" unicode="&#59244;" d="M817.5 832H206.6c-56.2 0-101.8-45.6-101.8-101.8v-692.4c0-56.2 45.6-101.8 101.8-101.8h610.9c56.2 0 101.8 45.6 101.8 101.8V730.2c0 56.2-45.6 101.8-101.8 101.8z m40.7-794.2c0-22.5-18.2-40.7-40.7-40.7H206.6c-22.5 0-40.7 18.2-40.7 40.7V730.2c0 22.5 18.2 40.7 40.7 40.7h610.9c22.5 0 40.7-18.2 40.7-40.7v-692.4zM379.6 404.4h-61.1c-16.9 0-30.5-13.7-30.5-30.5 0-16.9 13.7-30.5 30.5-30.5h61.1c16.9 0 30.5 13.7 30.5 30.5 0.1 16.8-13.6 30.5-30.5 30.5z m0-203.7h-61.1c-16.9 0-30.5-13.7-30.5-30.5 0-16.9 13.7-30.5 30.5-30.5h61.1c16.9 0 30.5 13.7 30.5 30.5 0.1 16.9-13.6 30.5-30.5 30.5z m0 407.3h-61.1c-16.9 0-30.5-13.7-30.5-30.5 0-16.9 13.7-30.5 30.5-30.5h61.1c16.9 0 30.5 13.7 30.5 30.5 0.1 16.8-13.6 30.5-30.5 30.5z m325.9-203.6H501.8c-16.9 0-30.5-13.7-30.5-30.5 0-16.9 13.7-30.5 30.5-30.5h203.7c16.8 0 30.5 13.7 30.5 30.5s-13.7 30.5-30.5 30.5z m0 203.6H501.8c-16.9 0-30.5-13.7-30.5-30.5 0-16.9 13.7-30.5 30.5-30.5h203.7c16.8 0 30.5 13.7 30.5 30.5S722.3 608 705.5 608z m0-407.3H501.8c-16.9 0-30.5-13.7-30.5-30.5 0-16.9 13.7-30.5 30.5-30.5h203.7c16.8 0 30.5 13.7 30.5 30.5 0 16.9-13.7 30.5-30.5 30.5z"  horiz-adv-x="1024" />

    
    <glyph glyph-name="D" unicode="&#59199;" d="M532.48 814.08C294.95296 814.08 102.4 621.52704 102.4 384s192.55296-430.08 430.08-430.08 430.08 192.55296 430.08 430.08S770.00704 814.08 532.48 814.08z m0-40.96c214.89664 0 389.12-174.22336 389.12-389.12s-174.22336-389.12-389.12-389.12S143.36 169.10336 143.36 384 317.58336 773.12 532.48 773.12zM510.19776 199.68c108.62592 0 168.09984 67.33824 168.09984 181.37088 0 114.52416-59.47392 178.91328-170.06592 178.91328H417.792V199.68h92.40576z m-5.89824 37.35552h-40.79616V523.10016h40.79616c85.03296 0 126.81216-50.62656 126.81216-142.04928 0-90.9312-41.7792-144.01536-126.81216-144.01536z"  horiz-adv-x="1024" />

    


  </font>
</defs>
</svg>
